<?xml version="1.0" encoding="UTF-8" standalone="no"?>
<!DOCTYPE svg PUBLIC "-//W3C//DTD SVG 1.1//EN"
 "http://www.w3.org/Graphics/SVG/1.1/DTD/svg11.dtd">
<!-- Generated by graphviz version 2.38.0 (20140413.2041)
 -->
<!-- Title: dependency&#45;cruiser output Pages: 1 -->
<svg width="325pt" height="410pt"
 viewBox="0.00 0.00 325.00 410.00" xmlns="http://www.w3.org/2000/svg" xmlns:xlink="http://www.w3.org/1999/xlink">
<g id="graph0" class="graph" transform="scale(1 1) rotate(0) translate(4 406)">
<title>dependency&#45;cruiser output</title>
<polygon fill="white" stroke="none" points="-4,4 -4,-406 321,-406 321,4 -4,4"/>
<g id="clust1" class="cluster"><title>cluster_src</title>
<path fill="#ffffff" stroke="black" stroke-width="2" d="M20,-8C20,-8 297,-8 297,-8 303,-8 309,-14 309,-20 309,-20 309,-382 309,-382 309,-388 303,-394 297,-394 297,-394 20,-394 20,-394 14,-394 8,-388 8,-382 8,-382 8,-20 8,-20 8,-14 14,-8 20,-8"/>
<text text-anchor="middle" x="158.5" y="-382.8" font-family="Helvetica,sans-Serif" font-weight="bold" font-size="9.00">src</text>
</g>
<g id="clust2" class="cluster"><title>cluster_src/components</title>
<path fill="#ffffff" stroke="black" stroke-width="2" d="M106,-16C106,-16 289,-16 289,-16 295,-16 301,-22 301,-28 301,-28 301,-146 301,-146 301,-152 295,-158 289,-158 289,-158 106,-158 106,-158 100,-158 94,-152 94,-146 94,-146 94,-28 94,-28 94,-22 100,-16 106,-16"/>
<text text-anchor="middle" x="197.5" y="-146.8" font-family="Helvetica,sans-Serif" font-weight="bold" font-size="9.00">components</text>
</g>
<g id="clust3" class="cluster"><title>cluster_src/components/Common</title>
<path fill="#ffffff" stroke="black" stroke-width="2" d="M200,-24C200,-24 281,-24 281,-24 287,-24 293,-30 293,-36 293,-36 293,-94 293,-94 293,-100 287,-106 281,-106 281,-106 200,-106 200,-106 194,-106 188,-100 188,-94 188,-94 188,-36 188,-36 188,-30 194,-24 200,-24"/>
<text text-anchor="middle" x="240.5" y="-94.8" font-family="Helvetica,sans-Serif" font-weight="bold" font-size="9.00">Common</text>
</g>
<g id="clust4" class="cluster"><title>cluster_src/reducers</title>
<path fill="#ffffff" stroke="black" stroke-width="2" d="M217.5,-256C217.5,-256 263.5,-256 263.5,-256 269.5,-256 275.5,-262 275.5,-268 275.5,-268 275.5,-296 275.5,-296 275.5,-302 269.5,-308 263.5,-308 263.5,-308 217.5,-308 217.5,-308 211.5,-308 205.5,-302 205.5,-296 205.5,-296 205.5,-268 205.5,-268 205.5,-262 211.5,-256 217.5,-256"/>
<text text-anchor="middle" x="240.5" y="-296.8" font-family="Helvetica,sans-Serif" font-weight="bold" font-size="9.00">reducers</text>
</g>
<g id="clust7" class="cluster"><title>cluster_src/utils</title>
<path fill="#ffffff" stroke="black" stroke-width="2" d="M217.5,-166C217.5,-166 263.5,-166 263.5,-166 269.5,-166 275.5,-172 275.5,-178 275.5,-178 275.5,-236 275.5,-236 275.5,-242 269.5,-248 263.5,-248 263.5,-248 217.5,-248 217.5,-248 211.5,-248 205.5,-242 205.5,-236 205.5,-236 205.5,-178 205.5,-178 205.5,-172 211.5,-166 217.5,-166"/>
<text text-anchor="middle" x="240.5" y="-236.8" font-family="Helvetica,sans-Serif" font-weight="bold" font-size="9.00">utils</text>
</g>
<g id="clust6" class="cluster"><title>cluster_src/store</title>
<path fill="#ffffff" stroke="black" stroke-width="2" d="M90,-256C90,-256 168,-256 168,-256 174,-256 180,-262 180,-268 180,-268 180,-296 180,-296 180,-302 174,-308 168,-308 168,-308 90,-308 90,-308 84,-308 78,-302 78,-296 78,-296 78,-268 78,-268 78,-262 84,-256 90,-256"/>
<text text-anchor="middle" x="129" y="-296.8" font-family="Helvetica,sans-Serif" font-weight="bold" font-size="9.00">store</text>
</g>
<g id="clust5" class="cluster"><title>cluster_src/sagas</title>
<path fill="#ffffff" stroke="black" stroke-width="2" d="M217.5,-316C217.5,-316 263.5,-316 263.5,-316 269.5,-316 275.5,-322 275.5,-328 275.5,-328 275.5,-356 275.5,-356 275.5,-362 269.5,-368 263.5,-368 263.5,-368 217.5,-368 217.5,-368 211.5,-368 205.5,-362 205.5,-356 205.5,-356 205.5,-328 205.5,-328 205.5,-322 211.5,-316 217.5,-316"/>
<text text-anchor="middle" x="240.5" y="-356.8" font-family="Helvetica,sans-Serif" font-weight="bold" font-size="9.00">sagas</text>
</g>
<!-- src/components/App.tsx -->
<g id="node1" class="node"><title>src/components/App.tsx</title>
<g id="a_node1"><a xlink:href="src/components/App.tsx" xlink:title="App.tsx">
<path fill="#bbfeff" stroke="black" d="M150,-132C150,-132 108,-132 108,-132 105,-132 102,-129 102,-126 102,-126 102,-120 102,-120 102,-117 105,-114 108,-114 108,-114 150,-114 150,-114 153,-114 156,-117 156,-120 156,-120 156,-126 156,-126 156,-129 153,-132 150,-132"/>
<text text-anchor="middle" x="129" y="-120.8" font-family="Helvetica,sans-Serif" font-size="9.00">App.tsx</text>
</a>
</g>
</g>
<!-- src/components/Common/ErrorBoundary.tsx -->
<g id="node2" class="node"><title>src/components/Common/ErrorBoundary.tsx</title>
<g id="a_node2"><a xlink:href="src/components/Common/ErrorBoundary.tsx" xlink:title="ErrorBoundary.tsx">
<path fill="#bbfeff" stroke="black" d="M279,-80C279,-80 202,-80 202,-80 199,-80 196,-77 196,-74 196,-74 196,-68 196,-68 196,-65 199,-62 202,-62 202,-62 279,-62 279,-62 282,-62 285,-65 285,-68 285,-68 285,-74 285,-74 285,-77 282,-80 279,-80"/>
<text text-anchor="middle" x="240.5" y="-68.8" font-family="Helvetica,sans-Serif" font-size="9.00">ErrorBoundary.tsx</text>
</a>
</g>
</g>
<!-- src/components/App.tsx&#45;&gt;src/components/Common/ErrorBoundary.tsx -->
<g id="edge2" class="edge"><title>src/components/App.tsx&#45;&gt;src/components/Common/ErrorBoundary.tsx</title>
<path fill="none" stroke="#000000" stroke-width="2" stroke-opacity="0.466667" d="M156.112,-121.255C164.653,-119.474 173.584,-116.139 180,-110 187.029,-103.274 182.25,-95.9292 188.649,-86.1125"/>
<polygon fill="#000000" fill-opacity="0.466667" stroke="#000000" stroke-width="2" stroke-opacity="0.466667" points="191.444,-88.2419 195.612,-78.5011 186.28,-83.5169 191.444,-88.2419"/>
</g>
<!-- src/components/Layout.tsx -->
<g id="node4" class="node"><title>src/components/Layout.tsx</title>
<g id="a_node4"><a xlink:href="src/components/Layout.tsx" xlink:title="Layout.tsx">
<path fill="#bbfeff" stroke="black" d="M263,-132C263,-132 218,-132 218,-132 215,-132 212,-129 212,-126 212,-126 212,-120 212,-120 212,-117 215,-114 218,-114 218,-114 263,-114 263,-114 266,-114 269,-117 269,-120 269,-120 269,-126 269,-126 269,-129 266,-132 263,-132"/>
<text text-anchor="middle" x="240.5" y="-120.8" font-family="Helvetica,sans-Serif" font-size="9.00">Layout.tsx</text>
</a>
</g>
</g>
<!-- src/components/App.tsx&#45;&gt;src/components/Layout.tsx -->
<g id="edge3" class="edge"><title>src/components/App.tsx&#45;&gt;src/components/Layout.tsx</title>
<path fill="none" stroke="#000000" stroke-width="2" stroke-opacity="0.466667" d="M156.228,-123C169.902,-123 186.87,-123 201.914,-123"/>
<polygon fill="#000000" fill-opacity="0.466667" stroke="#000000" stroke-width="2" stroke-opacity="0.466667" points="201.958,-126.5 211.958,-123 201.958,-119.5 201.958,-126.5"/>
</g>
<!-- src/utils/i18n.js -->
<g id="node10" class="node"><title>src/utils/i18n.js</title>
<g id="a_node10"><a xlink:href="src/utils/i18n.js" xlink:title="i18n.js">
<path fill="#ffffcc" stroke="black" d="M261.5,-192C261.5,-192 219.5,-192 219.5,-192 216.5,-192 213.5,-189 213.5,-186 213.5,-186 213.5,-180 213.5,-180 213.5,-177 216.5,-174 219.5,-174 219.5,-174 261.5,-174 261.5,-174 264.5,-174 267.5,-177 267.5,-180 267.5,-180 267.5,-186 267.5,-186 267.5,-189 264.5,-192 261.5,-192"/>
<text text-anchor="middle" x="240.5" y="-180.8" font-family="Helvetica,sans-Serif" font-size="9.00">i18n.js</text>
</a>
</g>
</g>
<!-- src/components/App.tsx&#45;&gt;src/utils/i18n.js -->
<g id="edge1" class="edge"><title>src/components/App.tsx&#45;&gt;src/utils/i18n.js</title>
<path fill="none" stroke="#000000" stroke-width="2" stroke-opacity="0.466667" d="M156.073,-124.785C164.611,-126.571 173.55,-129.897 180,-136 188.474,-144.018 180.148,-152.372 188,-161 192.381,-165.813 197.991,-169.613 203.889,-172.601"/>
<polygon fill="#000000" fill-opacity="0.466667" stroke="#000000" stroke-width="2" stroke-opacity="0.466667" points="202.691,-175.896 213.259,-176.657 205.472,-169.472 202.691,-175.896"/>
</g>
<!-- src/components/Common/IntlProvider.tsx -->
<g id="node3" class="node"><title>src/components/Common/IntlProvider.tsx</title>
<g id="a_node3"><a xlink:href="src/components/Common/IntlProvider.tsx" xlink:title="IntlProvider.tsx">
<path fill="#bbfeff" stroke="black" d="M272.5,-50C272.5,-50 208.5,-50 208.5,-50 205.5,-50 202.5,-47 202.5,-44 202.5,-44 202.5,-38 202.5,-38 202.5,-35 205.5,-32 208.5,-32 208.5,-32 272.5,-32 272.5,-32 275.5,-32 278.5,-35 278.5,-38 278.5,-38 278.5,-44 278.5,-44 278.5,-47 275.5,-50 272.5,-50"/>
<text text-anchor="middle" x="240.5" y="-38.8" font-family="Helvetica,sans-Serif" font-size="9.00">IntlProvider.tsx</text>
</a>
</g>
</g>
<!-- src/index.tsx -->
<g id="node5" class="node"><title>src/index.tsx</title>
<g id="a_node5"><a xlink:href="src/index.tsx" xlink:title="index.tsx">
<path fill="#bbfeff" stroke="black" d="M64,-165C64,-165 22,-165 22,-165 19,-165 16,-162 16,-159 16,-159 16,-153 16,-153 16,-150 19,-147 22,-147 22,-147 64,-147 64,-147 67,-147 70,-150 70,-153 70,-153 70,-159 70,-159 70,-162 67,-165 64,-165"/>
<text text-anchor="middle" x="43" y="-153.8" font-family="Helvetica,sans-Serif" font-size="9.00">index.tsx</text>
</a>
</g>
</g>
<!-- src/index.tsx&#45;&gt;src/components/App.tsx -->
<g id="edge4" class="edge"><title>src/index.tsx&#45;&gt;src/components/App.tsx</title>
<path fill="none" stroke="#000000" stroke-width="2" stroke-opacity="0.466667" d="M57.4455,-146.923C63.5213,-143.133 70.9148,-138.938 78,-136 82.4766,-134.144 87.2909,-132.492 92.1008,-131.041"/>
<polygon fill="#000000" fill-opacity="0.466667" stroke="#000000" stroke-width="2" stroke-opacity="0.466667" points="93.1524,-134.382 101.858,-128.344 91.2873,-127.635 93.1524,-134.382"/>
</g>
<!-- src/index.tsx&#45;&gt;src/components/Common/IntlProvider.tsx -->
<g id="edge5" class="edge"><title>src/index.tsx&#45;&gt;src/components/Common/IntlProvider.tsx</title>
<path fill="none" stroke="#000000" stroke-width="2" stroke-opacity="0.466667" d="M45.1265,-146.963C47.7124,-130.235 55.6747,-94.4699 78,-76 109.889,-49.6184 157.122,-41.8554 192.28,-40.1048"/>
<polygon fill="#000000" fill-opacity="0.466667" stroke="#000000" stroke-width="2" stroke-opacity="0.466667" points="192.442,-43.6013 202.312,-39.75 192.195,-36.6057 192.442,-43.6013"/>
</g>
<!-- src/store/configureStore.js -->
<g id="node8" class="node"><title>src/store/configureStore.js</title>
<g id="a_node8"><a xlink:href="src/store/configureStore.js" xlink:title="configureStore.js">
<path fill="#ffffcc" stroke="black" d="M166,-282C166,-282 92,-282 92,-282 89,-282 86,-279 86,-276 86,-276 86,-270 86,-270 86,-267 89,-264 92,-264 92,-264 166,-264 166,-264 169,-264 172,-267 172,-270 172,-270 172,-276 172,-276 172,-279 169,-282 166,-282"/>
<text text-anchor="middle" x="129" y="-270.8" font-family="Helvetica,sans-Serif" font-size="9.00">configureStore.js</text>
</a>
</g>
</g>
<!-- src/index.tsx&#45;&gt;src/store/configureStore.js -->
<g id="edge6" class="edge"><title>src/index.tsx&#45;&gt;src/store/configureStore.js</title>
<path fill="none" stroke="#000000" stroke-width="2" stroke-opacity="0.466667" d="M44.1956,-165.017C45.0685,-183.644 49.5752,-226.885 78.4699,-258.292"/>
<polygon fill="#000000" fill-opacity="0.466667" stroke="#000000" stroke-width="2" stroke-opacity="0.466667" points="76.316,-261.083 85.9002,-265.599 81.2242,-256.092 76.316,-261.083"/>
</g>
<!-- src/utils/history.js -->
<g id="node9" class="node"><title>src/utils/history.js</title>
<g id="a_node9"><a xlink:href="src/utils/history.js" xlink:title="history.js">
<path fill="#ffffcc" stroke="black" d="M261.5,-222C261.5,-222 219.5,-222 219.5,-222 216.5,-222 213.5,-219 213.5,-216 213.5,-216 213.5,-210 213.5,-210 213.5,-207 216.5,-204 219.5,-204 219.5,-204 261.5,-204 261.5,-204 264.5,-204 267.5,-207 267.5,-210 267.5,-210 267.5,-216 267.5,-216 267.5,-219 264.5,-222 261.5,-222"/>
<text text-anchor="middle" x="240.5" y="-210.8" font-family="Helvetica,sans-Serif" font-size="9.00">history.js</text>
</a>
</g>
</g>
<!-- src/index.tsx&#45;&gt;src/utils/history.js -->
<g id="edge7" class="edge"><title>src/index.tsx&#45;&gt;src/utils/history.js</title>
<path fill="none" stroke="#000000" stroke-width="2" stroke-opacity="0.466667" d="M70.0131,-163.59C98.8517,-172.004 146.748,-185.976 188,-198 193.012,-199.461 198.299,-201.001 203.5,-202.516"/>
<polygon fill="#000000" fill-opacity="0.466667" stroke="#000000" stroke-width="2" stroke-opacity="0.466667" points="202.72,-205.935 213.3,-205.371 204.678,-199.214 202.72,-205.935"/>
</g>
<!-- src/reducers/index.js -->
<g id="node6" class="node"><title>src/reducers/index.js</title>
<g id="a_node6"><a xlink:href="src/reducers/index.js" xlink:title="index.js">
<path fill="#ffffcc" stroke="black" d="M261.5,-282C261.5,-282 219.5,-282 219.5,-282 216.5,-282 213.5,-279 213.5,-276 213.5,-276 213.5,-270 213.5,-270 213.5,-267 216.5,-264 219.5,-264 219.5,-264 261.5,-264 261.5,-264 264.5,-264 267.5,-267 267.5,-270 267.5,-270 267.5,-276 267.5,-276 267.5,-279 264.5,-282 261.5,-282"/>
<text text-anchor="middle" x="240.5" y="-270.8" font-family="Helvetica,sans-Serif" font-size="9.00">index.js</text>
</a>
</g>
</g>
<!-- src/sagas/index.js -->
<g id="node7" class="node"><title>src/sagas/index.js</title>
<g id="a_node7"><a xlink:href="src/sagas/index.js" xlink:title="index.js">
<path fill="#ffffcc" stroke="black" d="M261.5,-342C261.5,-342 219.5,-342 219.5,-342 216.5,-342 213.5,-339 213.5,-336 213.5,-336 213.5,-330 213.5,-330 213.5,-327 216.5,-324 219.5,-324 219.5,-324 261.5,-324 261.5,-324 264.5,-324 267.5,-327 267.5,-330 267.5,-330 267.5,-336 267.5,-336 267.5,-339 264.5,-342 261.5,-342"/>
<text text-anchor="middle" x="240.5" y="-330.8" font-family="Helvetica,sans-Serif" font-size="9.00">index.js</text>
</a>
</g>
</g>
<!-- src/store/configureStore.js&#45;&gt;src/reducers/index.js -->
<g id="edge8" class="edge"><title>src/store/configureStore.js&#45;&gt;src/reducers/index.js</title>
<path fill="none" stroke="#000000" stroke-width="2" stroke-opacity="0.466667" d="M172.022,-273C182.318,-273 193.249,-273 203.247,-273"/>
<polygon fill="#000000" fill-opacity="0.466667" stroke="#000000" stroke-width="2" stroke-opacity="0.466667" points="203.263,-276.5 213.263,-273 203.263,-269.5 203.263,-276.5"/>
</g>
<!-- src/store/configureStore.js&#45;&gt;src/sagas/index.js -->
<g id="edge9" class="edge"><title>src/store/configureStore.js&#45;&gt;src/sagas/index.js</title>
<path fill="none" stroke="#000000" stroke-width="2" stroke-opacity="0.466667" d="M142.503,-282.121C153.989,-290.272 171.659,-302.245 188,-311 193.849,-314.134 200.24,-317.16 206.468,-319.914"/>
<polygon fill="#000000" fill-opacity="0.466667" stroke="#000000" stroke-width="2" stroke-opacity="0.466667" points="205.448,-323.284 216.019,-323.993 208.197,-316.847 205.448,-323.284"/>
</g>
</g>
</svg>
