<?xml version="1.0" encoding="UTF-8" standalone="no"?>
<!DOCTYPE svg PUBLIC "-//W3C//DTD SVG 1.1//EN"
 "http://www.w3.org/Graphics/SVG/1.1/DTD/svg11.dtd">
<!-- Generated by graphviz version 2.38.0 (20140413.2041)
 -->
<!-- Title: dependency&#45;cruiser output Pages: 1 -->
<svg width="464pt" height="500pt"
 viewBox="0.00 0.00 464.00 500.00" xmlns="http://www.w3.org/2000/svg" xmlns:xlink="http://www.w3.org/1999/xlink">
<g id="graph0" class="graph" transform="scale(1 1) rotate(0) translate(4 496)">
<title>dependency&#45;cruiser output</title>
<polygon fill="white" stroke="none" points="-4,4 -4,-496 460,-496 460,4 -4,4"/>
<g id="clust1" class="cluster"><title>cluster_src</title>
<path fill="#ffffff" stroke="black" stroke-width="2" d="M20,-8C20,-8 436,-8 436,-8 442,-8 448,-14 448,-20 448,-20 448,-472 448,-472 448,-478 442,-484 436,-484 436,-484 20,-484 20,-484 14,-484 8,-478 8,-472 8,-472 8,-20 8,-20 8,-14 14,-8 20,-8"/>
<text text-anchor="middle" x="228" y="-472.8" font-family="Helvetica,sans-Serif" font-weight="bold" font-size="9.00">src</text>
</g>
<g id="clust2" class="cluster"><title>cluster_src/components</title>
<path fill="#ffffff" stroke="black" stroke-width="2" d="M106,-16C106,-16 395,-16 395,-16 401,-16 407,-22 407,-28 407,-28 407,-146 407,-146 407,-152 401,-158 395,-158 395,-158 106,-158 106,-158 100,-158 94,-152 94,-146 94,-146 94,-28 94,-28 94,-22 100,-16 106,-16"/>
<text text-anchor="middle" x="250.5" y="-146.8" font-family="Helvetica,sans-Serif" font-weight="bold" font-size="9.00">components</text>
</g>
<g id="clust3" class="cluster"><title>cluster_src/components/Common</title>
<path fill="#ffffff" stroke="black" stroke-width="2" d="M200,-24C200,-24 281,-24 281,-24 287,-24 293,-30 293,-36 293,-36 293,-94 293,-94 293,-100 287,-106 281,-106 281,-106 200,-106 200,-106 194,-106 188,-100 188,-94 188,-94 188,-36 188,-36 188,-30 194,-24 200,-24"/>
<text text-anchor="middle" x="240.5" y="-94.8" font-family="Helvetica,sans-Serif" font-weight="bold" font-size="9.00">Common</text>
</g>
<g id="clust4" class="cluster"><title>cluster_src/reducers</title>
<path fill="#ffffff" stroke="black" stroke-width="2" d="M217.5,-256C217.5,-256 428,-256 428,-256 434,-256 440,-262 440,-268 440,-268 440,-356 440,-356 440,-362 434,-368 428,-368 428,-368 217.5,-368 217.5,-368 211.5,-368 205.5,-362 205.5,-356 205.5,-356 205.5,-268 205.5,-268 205.5,-262 211.5,-256 217.5,-256"/>
<text text-anchor="middle" x="322.75" y="-356.8" font-family="Helvetica,sans-Serif" font-weight="bold" font-size="9.00">reducers</text>
</g>
<g id="clust6" class="cluster"><title>cluster_src/store</title>
<path fill="#ffffff" stroke="black" stroke-width="2" d="M90,-286C90,-286 168,-286 168,-286 174,-286 180,-292 180,-298 180,-298 180,-326 180,-326 180,-332 174,-338 168,-338 168,-338 90,-338 90,-338 84,-338 78,-332 78,-326 78,-326 78,-298 78,-298 78,-292 84,-286 90,-286"/>
<text text-anchor="middle" x="129" y="-326.8" font-family="Helvetica,sans-Serif" font-weight="bold" font-size="9.00">store</text>
</g>
<g id="clust5" class="cluster"><title>cluster_src/sagas</title>
<path fill="#ffffff" stroke="black" stroke-width="2" d="M217.5,-376C217.5,-376 421,-376 421,-376 427,-376 433,-382 433,-388 433,-388 433,-446 433,-446 433,-452 427,-458 421,-458 421,-458 217.5,-458 217.5,-458 211.5,-458 205.5,-452 205.5,-446 205.5,-446 205.5,-388 205.5,-388 205.5,-382 211.5,-376 217.5,-376"/>
<text text-anchor="middle" x="319.25" y="-446.8" font-family="Helvetica,sans-Serif" font-weight="bold" font-size="9.00">sagas</text>
</g>
<g id="clust7" class="cluster"><title>cluster_src/utils</title>
<path fill="#ffffff" stroke="black" stroke-width="2" d="M217.5,-166C217.5,-166 263.5,-166 263.5,-166 269.5,-166 275.5,-172 275.5,-178 275.5,-178 275.5,-236 275.5,-236 275.5,-242 269.5,-248 263.5,-248 263.5,-248 217.5,-248 217.5,-248 211.5,-248 205.5,-242 205.5,-236 205.5,-236 205.5,-178 205.5,-178 205.5,-172 211.5,-166 217.5,-166"/>
<text text-anchor="middle" x="240.5" y="-236.8" font-family="Helvetica,sans-Serif" font-weight="bold" font-size="9.00">utils</text>
</g>
<!-- src/components/App.tsx -->
<g id="node1" class="node"><title>src/components/App.tsx</title>
<g id="a_node1"><a xlink:href="src/components/App.tsx" xlink:title="App.tsx">
<path fill="#bbfeff" stroke="black" d="M150,-132C150,-132 108,-132 108,-132 105,-132 102,-129 102,-126 102,-126 102,-120 102,-120 102,-117 105,-114 108,-114 108,-114 150,-114 150,-114 153,-114 156,-117 156,-120 156,-120 156,-126 156,-126 156,-129 153,-132 150,-132"/>
<text text-anchor="middle" x="129" y="-120.8" font-family="Helvetica,sans-Serif" font-size="9.00">App.tsx</text>
</a>
</g>
</g>
<!-- src/components/Common/ErrorBoundary.tsx -->
<g id="node2" class="node"><title>src/components/Common/ErrorBoundary.tsx</title>
<g id="a_node2"><a xlink:href="src/components/Common/ErrorBoundary.tsx" xlink:title="ErrorBoundary.tsx">
<path fill="#bbfeff" stroke="black" d="M279,-80C279,-80 202,-80 202,-80 199,-80 196,-77 196,-74 196,-74 196,-68 196,-68 196,-65 199,-62 202,-62 202,-62 279,-62 279,-62 282,-62 285,-65 285,-68 285,-68 285,-74 285,-74 285,-77 282,-80 279,-80"/>
<text text-anchor="middle" x="240.5" y="-68.8" font-family="Helvetica,sans-Serif" font-size="9.00">ErrorBoundary.tsx</text>
</a>
</g>
</g>
<!-- src/components/App.tsx&#45;&gt;src/components/Common/ErrorBoundary.tsx -->
<g id="edge2" class="edge"><title>src/components/App.tsx&#45;&gt;src/components/Common/ErrorBoundary.tsx</title>
<path fill="none" stroke="#000000" stroke-width="2" stroke-opacity="0.466667" d="M156.112,-121.255C164.653,-119.474 173.584,-116.139 180,-110 187.029,-103.274 182.25,-95.9292 188.649,-86.1125"/>
<polygon fill="#000000" fill-opacity="0.466667" stroke="#000000" stroke-width="2" stroke-opacity="0.466667" points="191.444,-88.2419 195.612,-78.5011 186.28,-83.5169 191.444,-88.2419"/>
</g>
<!-- src/components/Layout.tsx -->
<g id="node4" class="node"><title>src/components/Layout.tsx</title>
<g id="a_node4"><a xlink:href="src/components/Layout.tsx" xlink:title="Layout.tsx">
<path fill="#bbfeff" stroke="black" d="M263,-132C263,-132 218,-132 218,-132 215,-132 212,-129 212,-126 212,-126 212,-120 212,-120 212,-117 215,-114 218,-114 218,-114 263,-114 263,-114 266,-114 269,-117 269,-120 269,-120 269,-126 269,-126 269,-129 266,-132 263,-132"/>
<text text-anchor="middle" x="240.5" y="-120.8" font-family="Helvetica,sans-Serif" font-size="9.00">Layout.tsx</text>
</a>
</g>
</g>
<!-- src/components/App.tsx&#45;&gt;src/components/Layout.tsx -->
<g id="edge3" class="edge"><title>src/components/App.tsx&#45;&gt;src/components/Layout.tsx</title>
<path fill="none" stroke="#000000" stroke-width="2" stroke-opacity="0.466667" d="M156.228,-123C169.902,-123 186.87,-123 201.914,-123"/>
<polygon fill="#000000" fill-opacity="0.466667" stroke="#000000" stroke-width="2" stroke-opacity="0.466667" points="201.958,-126.5 211.958,-123 201.958,-119.5 201.958,-126.5"/>
</g>
<!-- src/utils/i18n.js -->
<g id="node17" class="node"><title>src/utils/i18n.js</title>
<g id="a_node17"><a xlink:href="src/utils/i18n.js" xlink:title="i18n.js">
<path fill="#ffffcc" stroke="black" d="M261.5,-192C261.5,-192 219.5,-192 219.5,-192 216.5,-192 213.5,-189 213.5,-186 213.5,-186 213.5,-180 213.5,-180 213.5,-177 216.5,-174 219.5,-174 219.5,-174 261.5,-174 261.5,-174 264.5,-174 267.5,-177 267.5,-180 267.5,-180 267.5,-186 267.5,-186 267.5,-189 264.5,-192 261.5,-192"/>
<text text-anchor="middle" x="240.5" y="-180.8" font-family="Helvetica,sans-Serif" font-size="9.00">i18n.js</text>
</a>
</g>
</g>
<!-- src/components/App.tsx&#45;&gt;src/utils/i18n.js -->
<g id="edge1" class="edge"><title>src/components/App.tsx&#45;&gt;src/utils/i18n.js</title>
<path fill="none" stroke="#000000" stroke-width="2" stroke-opacity="0.466667" d="M156.073,-124.785C164.611,-126.571 173.55,-129.897 180,-136 188.474,-144.018 180.148,-152.372 188,-161 192.381,-165.813 197.991,-169.613 203.889,-172.601"/>
<polygon fill="#000000" fill-opacity="0.466667" stroke="#000000" stroke-width="2" stroke-opacity="0.466667" points="202.691,-175.896 213.259,-176.657 205.472,-169.472 202.691,-175.896"/>
</g>
<!-- src/components/Common/IntlProvider.tsx -->
<g id="node3" class="node"><title>src/components/Common/IntlProvider.tsx</title>
<g id="a_node3"><a xlink:href="src/components/Common/IntlProvider.tsx" xlink:title="IntlProvider.tsx">
<path fill="#bbfeff" stroke="black" d="M272.5,-50C272.5,-50 208.5,-50 208.5,-50 205.5,-50 202.5,-47 202.5,-44 202.5,-44 202.5,-38 202.5,-38 202.5,-35 205.5,-32 208.5,-32 208.5,-32 272.5,-32 272.5,-32 275.5,-32 278.5,-35 278.5,-38 278.5,-38 278.5,-44 278.5,-44 278.5,-47 275.5,-50 272.5,-50"/>
<text text-anchor="middle" x="240.5" y="-38.8" font-family="Helvetica,sans-Serif" font-size="9.00">IntlProvider.tsx</text>
</a>
</g>
</g>
<!-- src/components/NavMenu.js -->
<g id="node5" class="node"><title>src/components/NavMenu.js</title>
<g id="a_node5"><a xlink:href="src/components/NavMenu.js" xlink:title="NavMenu.js">
<path fill="#ffffcc" stroke="black" d="M393,-132C393,-132 340,-132 340,-132 337,-132 334,-129 334,-126 334,-126 334,-120 334,-120 334,-117 337,-114 340,-114 340,-114 393,-114 393,-114 396,-114 399,-117 399,-120 399,-120 399,-126 399,-126 399,-129 396,-132 393,-132"/>
<text text-anchor="middle" x="366.5" y="-120.8" font-family="Helvetica,sans-Serif" font-size="9.00">NavMenu.js</text>
</a>
</g>
</g>
<!-- src/components/Layout.tsx&#45;&gt;src/components/NavMenu.js -->
<g id="edge5" class="edge"><title>src/components/Layout.tsx&#45;&gt;src/components/NavMenu.js</title>
<path fill="none" stroke="#000000" stroke-width="2" stroke-opacity="0.466667" d="M269.02,-123C285.004,-123 305.473,-123 323.44,-123"/>
<polygon fill="#000000" fill-opacity="0.466667" stroke="#000000" stroke-width="2" stroke-opacity="0.466667" points="323.678,-126.5 333.678,-123 323.678,-119.5 323.678,-126.5"/>
</g>
<!-- src/routers.tsx -->
<g id="node11" class="node"><title>src/routers.tsx</title>
<g id="a_node11"><a xlink:href="src/routers.tsx" xlink:title="routers.tsx">
<path fill="#bbfeff" stroke="black" d="M390,-184C390,-184 343,-184 343,-184 340,-184 337,-181 337,-178 337,-178 337,-172 337,-172 337,-169 340,-166 343,-166 343,-166 390,-166 390,-166 393,-166 396,-169 396,-172 396,-172 396,-178 396,-178 396,-181 393,-184 390,-184"/>
<text text-anchor="middle" x="366.5" y="-172.8" font-family="Helvetica,sans-Serif" font-size="9.00">routers.tsx</text>
</a>
</g>
</g>
<!-- src/components/Layout.tsx&#45;&gt;src/routers.tsx -->
<g id="edge4" class="edge"><title>src/components/Layout.tsx&#45;&gt;src/routers.tsx</title>
<path fill="none" stroke="#000000" stroke-width="2" stroke-opacity="0.466667" d="M253.111,-132.197C264.628,-140.874 283.096,-153.619 301,-161 309.147,-164.359 318.22,-166.963 326.928,-168.963"/>
<polygon fill="#000000" fill-opacity="0.466667" stroke="#000000" stroke-width="2" stroke-opacity="0.466667" points="326.401,-172.428 336.904,-171.042 327.829,-165.576 326.401,-172.428"/>
</g>
<!-- src/index.tsx -->
<g id="node6" class="node"><title>src/index.tsx</title>
<g id="a_node6"><a xlink:href="src/index.tsx" xlink:title="index.tsx">
<path fill="#bbfeff" stroke="black" d="M64,-165C64,-165 22,-165 22,-165 19,-165 16,-162 16,-159 16,-159 16,-153 16,-153 16,-150 19,-147 22,-147 22,-147 64,-147 64,-147 67,-147 70,-150 70,-153 70,-153 70,-159 70,-159 70,-162 67,-165 64,-165"/>
<text text-anchor="middle" x="43" y="-153.8" font-family="Helvetica,sans-Serif" font-size="9.00">index.tsx</text>
</a>
</g>
</g>
<!-- src/index.tsx&#45;&gt;src/components/App.tsx -->
<g id="edge6" class="edge"><title>src/index.tsx&#45;&gt;src/components/App.tsx</title>
<path fill="none" stroke="#000000" stroke-width="2" stroke-opacity="0.466667" d="M57.4455,-146.923C63.5213,-143.133 70.9148,-138.938 78,-136 82.4766,-134.144 87.2909,-132.492 92.1008,-131.041"/>
<polygon fill="#000000" fill-opacity="0.466667" stroke="#000000" stroke-width="2" stroke-opacity="0.466667" points="93.1524,-134.382 101.858,-128.344 91.2873,-127.635 93.1524,-134.382"/>
</g>
<!-- src/index.tsx&#45;&gt;src/components/Common/IntlProvider.tsx -->
<g id="edge7" class="edge"><title>src/index.tsx&#45;&gt;src/components/Common/IntlProvider.tsx</title>
<path fill="none" stroke="#000000" stroke-width="2" stroke-opacity="0.466667" d="M45.1265,-146.963C47.7124,-130.235 55.6747,-94.4699 78,-76 109.889,-49.6184 157.122,-41.8554 192.28,-40.1048"/>
<polygon fill="#000000" fill-opacity="0.466667" stroke="#000000" stroke-width="2" stroke-opacity="0.466667" points="192.442,-43.6013 202.312,-39.75 192.195,-36.6057 192.442,-43.6013"/>
</g>
<!-- src/store/configureStore.js -->
<g id="node15" class="node"><title>src/store/configureStore.js</title>
<g id="a_node15"><a xlink:href="src/store/configureStore.js" xlink:title="configureStore.js">
<path fill="#ffffcc" stroke="black" d="M166,-312C166,-312 92,-312 92,-312 89,-312 86,-309 86,-306 86,-306 86,-300 86,-300 86,-297 89,-294 92,-294 92,-294 166,-294 166,-294 169,-294 172,-297 172,-300 172,-300 172,-306 172,-306 172,-309 169,-312 166,-312"/>
<text text-anchor="middle" x="129" y="-300.8" font-family="Helvetica,sans-Serif" font-size="9.00">configureStore.js</text>
</a>
</g>
</g>
<!-- src/index.tsx&#45;&gt;src/store/configureStore.js -->
<g id="edge8" class="edge"><title>src/index.tsx&#45;&gt;src/store/configureStore.js</title>
<path fill="none" stroke="#000000" stroke-width="2" stroke-opacity="0.466667" d="M43.3952,-165.326C42.4281,-188.117 43.0575,-247.414 78.668,-288.354"/>
<polygon fill="#000000" fill-opacity="0.466667" stroke="#000000" stroke-width="2" stroke-opacity="0.466667" points="76.3011,-290.944 85.7319,-295.772 81.3704,-286.117 76.3011,-290.944"/>
</g>
<!-- src/utils/history.js -->
<g id="node16" class="node"><title>src/utils/history.js</title>
<g id="a_node16"><a xlink:href="src/utils/history.js" xlink:title="history.js">
<path fill="#ffffcc" stroke="black" d="M261.5,-222C261.5,-222 219.5,-222 219.5,-222 216.5,-222 213.5,-219 213.5,-216 213.5,-216 213.5,-210 213.5,-210 213.5,-207 216.5,-204 219.5,-204 219.5,-204 261.5,-204 261.5,-204 264.5,-204 267.5,-207 267.5,-210 267.5,-210 267.5,-216 267.5,-216 267.5,-219 264.5,-222 261.5,-222"/>
<text text-anchor="middle" x="240.5" y="-210.8" font-family="Helvetica,sans-Serif" font-size="9.00">history.js</text>
</a>
</g>
</g>
<!-- src/index.tsx&#45;&gt;src/utils/history.js -->
<g id="edge9" class="edge"><title>src/index.tsx&#45;&gt;src/utils/history.js</title>
<path fill="none" stroke="#000000" stroke-width="2" stroke-opacity="0.466667" d="M70.0131,-163.59C98.8517,-172.004 146.748,-185.976 188,-198 193.012,-199.461 198.299,-201.001 203.5,-202.516"/>
<polygon fill="#000000" fill-opacity="0.466667" stroke="#000000" stroke-width="2" stroke-opacity="0.466667" points="202.72,-205.935 213.3,-205.371 204.678,-199.214 202.72,-205.935"/>
</g>
<!-- src/reducers/configReducer.js -->
<g id="node7" class="node"><title>src/reducers/configReducer.js</title>
<g id="a_node7"><a xlink:href="src/reducers/configReducer.js" xlink:title="configReducer.js">
<path fill="#ffffcc" stroke="black" d="M403.5,-282C403.5,-282 329.5,-282 329.5,-282 326.5,-282 323.5,-279 323.5,-276 323.5,-276 323.5,-270 323.5,-270 323.5,-267 326.5,-264 329.5,-264 329.5,-264 403.5,-264 403.5,-264 406.5,-264 409.5,-267 409.5,-270 409.5,-270 409.5,-276 409.5,-276 409.5,-279 406.5,-282 403.5,-282"/>
<text text-anchor="middle" x="366.5" y="-270.8" font-family="Helvetica,sans-Serif" font-size="9.00">configReducer.js</text>
</a>
</g>
</g>
<!-- src/reducers/counterReducer.js -->
<g id="node8" class="node"><title>src/reducers/counterReducer.js</title>
<g id="a_node8"><a xlink:href="src/reducers/counterReducer.js" xlink:title="counterReducer.js">
<path fill="#ffffcc" stroke="black" d="M406.5,-312C406.5,-312 326.5,-312 326.5,-312 323.5,-312 320.5,-309 320.5,-306 320.5,-306 320.5,-300 320.5,-300 320.5,-297 323.5,-294 326.5,-294 326.5,-294 406.5,-294 406.5,-294 409.5,-294 412.5,-297 412.5,-300 412.5,-300 412.5,-306 412.5,-306 412.5,-309 409.5,-312 406.5,-312"/>
<text text-anchor="middle" x="366.5" y="-300.8" font-family="Helvetica,sans-Serif" font-size="9.00">counterReducer.js</text>
</a>
</g>
</g>
<!-- src/reducers/index.js -->
<g id="node9" class="node"><title>src/reducers/index.js</title>
<g id="a_node9"><a xlink:href="src/reducers/index.js" xlink:title="index.js">
<path fill="#ffffcc" stroke="black" d="M261.5,-312C261.5,-312 219.5,-312 219.5,-312 216.5,-312 213.5,-309 213.5,-306 213.5,-306 213.5,-300 213.5,-300 213.5,-297 216.5,-294 219.5,-294 219.5,-294 261.5,-294 261.5,-294 264.5,-294 267.5,-297 267.5,-300 267.5,-300 267.5,-306 267.5,-306 267.5,-309 264.5,-312 261.5,-312"/>
<text text-anchor="middle" x="240.5" y="-300.8" font-family="Helvetica,sans-Serif" font-size="9.00">index.js</text>
</a>
</g>
</g>
<!-- src/reducers/index.js&#45;&gt;src/reducers/configReducer.js -->
<g id="edge10" class="edge"><title>src/reducers/index.js&#45;&gt;src/reducers/configReducer.js</title>
<path fill="none" stroke="#000000" stroke-width="2" stroke-opacity="0.466667" d="M267.541,-296.324C277.938,-293.688 290.025,-290.659 301,-288 305.97,-286.796 311.161,-285.557 316.345,-284.332"/>
<polygon fill="#000000" fill-opacity="0.466667" stroke="#000000" stroke-width="2" stroke-opacity="0.466667" points="317.312,-287.7 326.247,-282.007 315.712,-280.886 317.312,-287.7"/>
</g>
<!-- src/reducers/index.js&#45;&gt;src/reducers/counterReducer.js -->
<g id="edge11" class="edge"><title>src/reducers/index.js&#45;&gt;src/reducers/counterReducer.js</title>
<path fill="none" stroke="#000000" stroke-width="2" stroke-opacity="0.466667" d="M267.797,-303C280.158,-303 295.392,-303 310.121,-303"/>
<polygon fill="#000000" fill-opacity="0.466667" stroke="#000000" stroke-width="2" stroke-opacity="0.466667" points="310.196,-306.5 320.196,-303 310.196,-299.5 310.196,-306.5"/>
</g>
<!-- src/reducers/weatherForecastReducer.js -->
<g id="node10" class="node"><title>src/reducers/weatherForecastReducer.js</title>
<g id="a_node10"><a xlink:href="src/reducers/weatherForecastReducer.js" xlink:title="weatherForecastReducer.js">
<path fill="#ffffcc" stroke="black" d="M426,-342C426,-342 307,-342 307,-342 304,-342 301,-339 301,-336 301,-336 301,-330 301,-330 301,-327 304,-324 307,-324 307,-324 426,-324 426,-324 429,-324 432,-327 432,-330 432,-330 432,-336 432,-336 432,-339 429,-342 426,-342"/>
<text text-anchor="middle" x="366.5" y="-330.8" font-family="Helvetica,sans-Serif" font-size="9.00">weatherForecastReducer.js</text>
</a>
</g>
</g>
<!-- src/reducers/index.js&#45;&gt;src/reducers/weatherForecastReducer.js -->
<g id="edge12" class="edge"><title>src/reducers/index.js&#45;&gt;src/reducers/weatherForecastReducer.js</title>
<path fill="none" stroke="#000000" stroke-width="2" stroke-opacity="0.466667" d="M267.541,-309.676C277.938,-312.312 290.025,-315.341 301,-318 305.97,-319.204 311.161,-320.443 316.345,-321.668"/>
<polygon fill="#000000" fill-opacity="0.466667" stroke="#000000" stroke-width="2" stroke-opacity="0.466667" points="315.712,-325.114 326.247,-323.993 317.312,-318.3 315.712,-325.114"/>
</g>
<!-- src/sagas/counterSaga.js -->
<g id="node12" class="node"><title>src/sagas/counterSaga.js</title>
<g id="a_node12"><a xlink:href="src/sagas/counterSaga.js" xlink:title="counterSaga.js">
<path fill="#ffffcc" stroke="black" d="M400,-402C400,-402 333,-402 333,-402 330,-402 327,-399 327,-396 327,-396 327,-390 327,-390 327,-387 330,-384 333,-384 333,-384 400,-384 400,-384 403,-384 406,-387 406,-390 406,-390 406,-396 406,-396 406,-399 403,-402 400,-402"/>
<text text-anchor="middle" x="366.5" y="-390.8" font-family="Helvetica,sans-Serif" font-size="9.00">counterSaga.js</text>
</a>
</g>
</g>
<!-- src/sagas/index.js -->
<g id="node13" class="node"><title>src/sagas/index.js</title>
<g id="a_node13"><a xlink:href="src/sagas/index.js" xlink:title="index.js">
<path fill="#ffffcc" stroke="black" d="M261.5,-402C261.5,-402 219.5,-402 219.5,-402 216.5,-402 213.5,-399 213.5,-396 213.5,-396 213.5,-390 213.5,-390 213.5,-387 216.5,-384 219.5,-384 219.5,-384 261.5,-384 261.5,-384 264.5,-384 267.5,-387 267.5,-390 267.5,-390 267.5,-396 267.5,-396 267.5,-399 264.5,-402 261.5,-402"/>
<text text-anchor="middle" x="240.5" y="-390.8" font-family="Helvetica,sans-Serif" font-size="9.00">index.js</text>
</a>
</g>
</g>
<!-- src/sagas/index.js&#45;&gt;src/sagas/counterSaga.js -->
<g id="edge13" class="edge"><title>src/sagas/index.js&#45;&gt;src/sagas/counterSaga.js</title>
<path fill="none" stroke="#000000" stroke-width="2" stroke-opacity="0.466667" d="M267.797,-393C282.044,-393 300.107,-393 316.816,-393"/>
<polygon fill="#000000" fill-opacity="0.466667" stroke="#000000" stroke-width="2" stroke-opacity="0.466667" points="316.998,-396.5 326.998,-393 316.998,-389.5 316.998,-396.5"/>
</g>
<!-- src/sagas/weatherForecastSaga.js -->
<g id="node14" class="node"><title>src/sagas/weatherForecastSaga.js</title>
<g id="a_node14"><a xlink:href="src/sagas/weatherForecastSaga.js" xlink:title="weatherForecastSaga.js">
<path fill="#ffffcc" stroke="black" d="M419,-432C419,-432 314,-432 314,-432 311,-432 308,-429 308,-426 308,-426 308,-420 308,-420 308,-417 311,-414 314,-414 314,-414 419,-414 419,-414 422,-414 425,-417 425,-420 425,-420 425,-426 425,-426 425,-429 422,-432 419,-432"/>
<text text-anchor="middle" x="366.5" y="-420.8" font-family="Helvetica,sans-Serif" font-size="9.00">weatherForecastSaga.js</text>
</a>
</g>
</g>
<!-- src/sagas/index.js&#45;&gt;src/sagas/weatherForecastSaga.js -->
<g id="edge14" class="edge"><title>src/sagas/index.js&#45;&gt;src/sagas/weatherForecastSaga.js</title>
<path fill="none" stroke="#000000" stroke-width="2" stroke-opacity="0.466667" d="M267.541,-399.676C277.938,-402.312 290.025,-405.341 301,-408 305.97,-409.204 311.161,-410.443 316.345,-411.668"/>
<polygon fill="#000000" fill-opacity="0.466667" stroke="#000000" stroke-width="2" stroke-opacity="0.466667" points="315.712,-415.114 326.247,-413.993 317.312,-408.3 315.712,-415.114"/>
</g>
<!-- src/store/configureStore.js&#45;&gt;src/reducers/index.js -->
<g id="edge15" class="edge"><title>src/store/configureStore.js&#45;&gt;src/reducers/index.js</title>
<path fill="none" stroke="#000000" stroke-width="2" stroke-opacity="0.466667" d="M172.022,-303C182.318,-303 193.249,-303 203.247,-303"/>
<polygon fill="#000000" fill-opacity="0.466667" stroke="#000000" stroke-width="2" stroke-opacity="0.466667" points="203.263,-306.5 213.263,-303 203.263,-299.5 203.263,-306.5"/>
</g>
<!-- src/store/configureStore.js&#45;&gt;src/sagas/index.js -->
<g id="edge16" class="edge"><title>src/store/configureStore.js&#45;&gt;src/sagas/index.js</title>
<path fill="none" stroke="#000000" stroke-width="2" stroke-opacity="0.466667" d="M135.725,-312.097C145.1,-326.356 165.001,-354.084 188,-371 192.867,-374.58 198.406,-377.718 204.003,-380.418"/>
<polygon fill="#000000" fill-opacity="0.466667" stroke="#000000" stroke-width="2" stroke-opacity="0.466667" points="202.808,-383.716 213.371,-384.549 205.633,-377.311 202.808,-383.716"/>
</g>
</g>
</svg>
